<svg width="130" height="36" viewBox="0 0 130 36" fill="none" xmlns="http://www.w3.org/2000/svg">
<path d="M119.49 6.52026C118.31 3.12026 116.25 0.520264 112.69 0.520264C109.13 0.520264 107.08 3.13026 105.89 6.52026L95.9501 35.0103H103.25L104.83 30.4603L106.89 24.5503L112.69 7.85026L122.14 35.0103H129.44L119.49 6.52026Z" fill="#9D805F"/>
<path d="M36.69 0.890117H45.9C47.6106 0.876941 49.3069 1.20148 50.8918 1.84514C52.4766 2.4888 53.9189 3.43892 55.1359 4.64104C56.3529 5.84315 57.3206 7.27363 57.9837 8.85048C58.6468 10.4273 58.9922 12.1195 59 13.8301V22.0001C58.9909 23.7099 58.6445 25.401 57.9809 26.9767C57.3172 28.5524 56.3492 29.9817 55.1324 31.1827C53.9155 32.3838 52.4737 33.333 50.8895 33.976C49.3052 34.6191 47.6097 34.9433 45.9 34.9301H30.25V6.93012C30.3152 5.28283 31.0285 3.72799 32.2347 2.60421C33.4409 1.48042 35.0422 0.878713 36.69 0.930117M52.16 13.8301C52.16 9.98012 49.37 6.83012 45.9 6.83012H37.1V29.0201H45.9C49.37 29.0201 52.16 25.8501 52.16 22.0201V13.8301ZM16.88 0.870117H0.150024V6.79012H9.28002V34.9101H16.12V6.79012H25.84V0.870117H16.88Z" fill="white"/>
<path d="M36.84 0.870186H46.06C47.7697 0.858331 49.465 1.18385 51.0487 1.8281C52.6324 2.47235 54.0735 3.42268 55.2894 4.62467C56.5053 5.82665 57.4722 7.25669 58.1347 8.83288C58.7971 10.4091 59.1422 12.1005 59.15 13.8102V21.9802C59.1409 23.6891 58.7949 25.3794 58.1318 26.9544C57.4688 28.5295 56.5017 29.9583 55.2859 31.1592C54.0701 32.3602 52.6295 33.3096 51.0464 33.9532C49.4633 34.5969 47.7689 34.922 46.06 34.9102H30.4V6.91019C30.4652 5.2629 31.1785 3.70806 32.3847 2.58427C33.5909 1.46049 35.1923 0.858781 36.84 0.910186M52.31 13.8102C52.31 9.96019 49.52 6.81019 46.06 6.81019H37.25V29.0002H46.06C49.52 29.0002 52.31 25.8302 52.31 22.0002V13.8102ZM84.84 24.5902C89.77 23.1202 93.24 19.2202 93.24 13.7202V12.4602C93.24 5.31018 87.35 0.900186 80.14 0.900186H70.92C69.2732 0.84883 67.673 1.45085 66.4684 2.5749C65.2638 3.69894 64.5526 5.25378 64.49 6.90019V34.9002H71.33V25.2802H77.04L85.48 34.9102H94.01L84.84 24.5902ZM71.33 19.3602V6.79019H80.14C83.61 6.79019 86.39 8.58019 86.39 12.4302V13.7202C86.39 17.5702 83.61 19.3602 80.14 19.3602H71.33Z" fill="white"/>
</svg>
